<?xml version="1.0" encoding="UTF-8"?>
<!DOCTYPE svg PUBLIC "-//W3C//DTD SVG 1.1//EN" "http://www.w3.org/Graphics/SVG/1.1/DTD/svg11.dtd">
<!-- Creator: CorelDRAW 2018 (64-Bit) -->
<svg xmlns="http://www.w3.org/2000/svg" xml:space="preserve" width="10.4167in" height="10.4167in" version="1.1" style="shape-rendering:geometricPrecision; text-rendering:geometricPrecision; image-rendering:optimizeQuality; fill-rule:evenodd; clip-rule:evenodd"
viewBox="0 0 10416.66 10416.66"
 xmlns:xlink="http://www.w3.org/1999/xlink">
 <defs>
  <style type="text/css">
   <![CDATA[
    .fil2 {fill:none}
    .fil0 {fill:#0D6EFD}
    .fil1 {fill:#FFCC29}
   ]]>
  </style>
 </defs>
 <g id="Layer_x0020_1">
  <metadata id="CorelCorpID_0Corel-Layer"/>
  <g id="_1726904813536">
   <g>
    <polygon class="fil0" points="2496.04,1411.42 4944.85,1411.42 5682.07,1411.42 5104.94,2410.96 5875.86,3746.2 6646.71,5081.44 8188.52,5081.4 9512.62,5081.4 9842.57,5652.9 8618.12,7773.62 7393.67,9894.38 4944.85,9894.38 2496,9894.42 1271.59,7773.62 47.19,5652.9 1271.63,3532.19 "/>
    <polygon class="fil1" points="7098.11,522.25 8188.55,522.26 9279.01,522.24 9824.23,1466.59 10369.46,2410.95 9824.22,3355.31 9279,4299.66 8188.55,4299.66 7098.09,4299.67 6552.87,3355.32 6007.65,2410.97 6552.89,1466.61 "/>
   </g>
   <rect class="fil2" x="-0" y="-0" width="10416.66" height="10416.66"/>
  </g>
 </g>
</svg>
